<svg height="800" width="800" xmlns="http://www.w3.org/2000/svg" viewBox="0 0 512 512" xml:space="preserve"><path d="M494.365 133.438a67.066 67.066 0 0 0-48.804-27.219L126.245 80.918l-3.129-17.749c-5.252-29.676-28.858-52.657-58.671-57.066L24.597.187C15.093-1.209 6.253 5.359 4.84 14.846c-1.409 9.512 5.158 18.356 14.658 19.761v-.008l39.861 5.907c14.97 2.218 26.868 13.785 29.501 28.71l54.009 306.134c5.073 28.735 30.027 49.669 59.206 49.678h221.971c9.606 0 17.394-7.792 17.394-17.39 0-9.607-7.788-17.398-17.394-17.398H202.075c-12.282.009-22.813-8.836-24.946-20.934l-5-28.349h244.879c31.234 0 58.346-21.55 65.367-52.005l23.258-100.767c1.151-5 1.717-10.06 1.717-15.086a67.032 67.032 0 0 0-12.985-39.661zm-174.673-8.108 72.469 5.745v180.898h-72.469V125.33zm-23.19 186.643h-72.47V117.752l72.47 5.746v188.475zM131.451 110.415l69.395 5.496v196.062h-33.833l-35.562-201.558zm345.927 71.253-23.245 100.776c-3.986 17.278-19.385 29.53-37.125 29.53h-1.657V132.916l27.926 2.208a38.018 38.018 0 0 1 27.706 15.447 38.067 38.067 0 0 1 7.381 22.526 38.065 38.065 0 0 1-.986 8.571zM215.346 450.165c-17.076 0-30.909 13.853-30.909 30.926S198.269 512 215.346 512c17.078 0 30.927-13.836 30.927-30.909s-13.85-30.926-30.927-30.926zm166.193 0c-17.073 0-30.913 13.853-30.913 30.926S364.466 512 381.539 512c17.072 0 30.922-13.836 30.922-30.909s-13.849-30.926-30.922-30.926z" style="fill:#000"/></svg>