<svg width="30" height="30" fill="none" xmlns="http://www.w3.org/2000/svg"><path d="M24.082 2.5h-19a2.382 2.382 0 0 0-2.375 2.375v19a2.382 2.382 0 0 0 2.375 2.375h19a2.382 2.382 0 0 0 2.375-2.375v-19A2.382 2.382 0 0 0 24.082 2.5ZM9.832 22.688H6.269V12h3.563v10.688ZM8.05 9.98a2.129 2.129 0 0 1-2.138-2.137c0-1.188.95-2.138 2.138-2.138 1.187 0 2.137.95 2.137 2.138 0 1.187-.95 2.137-2.137 2.137Zm14.843 12.707h-3.562v-6.294c0-.95-.832-1.781-1.782-1.781-.95 0-1.78.83-1.78 1.78v6.294h-3.563V12h3.562v1.425c.594-.95 1.9-1.663 2.969-1.663 2.256 0 4.156 1.9 4.156 4.157v6.768Z" fill="#fff"/></svg>