<svg width="30" height="30" viewBox="0 0 30 30" fill="none" xmlns="http://www.w3.org/2000/svg">
<path d="M24.0818 2.5H5.08179C3.77554 2.5 2.70679 3.56875 2.70679 4.875V23.875C2.70679 25.1812 3.77554 26.25 5.08179 26.25H24.0818C25.388 26.25 26.4568 25.1812 26.4568 23.875V4.875C26.4568 3.56875 25.388 2.5 24.0818 2.5ZM9.83179 22.6875H6.26929V12H9.83179V22.6875ZM8.05054 9.98125C6.86304 9.98125 5.91304 9.03125 5.91304 7.84375C5.91304 6.65625 6.86304 5.70625 8.05054 5.70625C9.23804 5.70625 10.188 6.65625 10.188 7.84375C10.188 9.03125 9.23804 9.98125 8.05054 9.98125ZM22.8943 22.6875H19.3318V16.3938C19.3318 15.4438 18.5005 14.6125 17.5505 14.6125C16.6005 14.6125 15.7693 15.4438 15.7693 16.3938V22.6875H12.2068V12H15.7693V13.425C16.363 12.475 17.6693 11.7625 18.738 11.7625C20.9943 11.7625 22.8943 13.6625 22.8943 15.9187V22.6875Z" fill="white"/>
</svg>
